<?xml version="1.0" encoding="utf-8"?>
<!-- Generator: Adobe Illustrator 23.0.1, SVG Export Plug-In . SVG Version: 6.00 Build 0)  -->
<svg version="1.1" id="Capa_1" xmlns="http://www.w3.org/2000/svg" xmlns:xlink="http://www.w3.org/1999/xlink" x="0px" y="0px"
	 viewBox="0 0 512 512" style="enable-background:new 0 0 512 512;" xml:space="preserve">
<style type="text/css">
	.st0{fill:#28347C;}
	.st1{fill:#3D80C3;}
</style>
<g>
	<g>
		<path class="st0" d="M488.7,300.2c-7,0-11.6,4.7-11.6,11.6v151.3c0,7-4.7,11.6-11.6,11.6H46.5c-7,0-11.6-4.7-11.6-11.6V311.8
			c0-7-4.7-11.6-11.6-11.6s-11.6,4.7-11.6,11.6v151.3c0,19.8,15.1,34.9,34.9,34.9h418.9c19.8,0,34.9-15.1,34.9-34.9V311.8
			C500.4,304.9,495.7,300.2,488.7,300.2z"/>
	</g>
</g>
<g>
	<g>
		<path class="st0" d="M477.1,97.3H34.9C15.1,97.3,0,112.4,0,132.2v114.5c0,16.3,11.6,30.3,26.8,33.7l182.7,109.7v37.2
			c0,7,4.7,11.6,11.6,11.6h69.8c7,0,11.6-4.7,11.6-11.6v-37.2l182.7-109.7c15.1-3.5,26.8-17.5,26.8-33.7V132.2
			C512,112.4,496.9,97.3,477.1,97.3z M279.3,415.8h-46.5v-46.5h46.5V415.8z M488.7,246.7c0,5.8-3.5,10.5-9.3,11.6L302.5,366.9v-9.3
			c0-7-4.7-11.6-11.6-11.6h-69.8c-7,0-11.6,4.7-11.6,11.6v9.3L32.6,258.3c-5.8-1.2-9.3-5.8-9.3-11.6V132.2c0-7,4.7-11.6,11.6-11.6
			h442.2c7,0,11.6,4.7,11.6,11.6V246.7z"/>
	</g>
</g>
<g>
	<g>
		<path class="st0" d="M314.2,15.8H197.8c-19.8,0-34.9,15.1-34.9,34.9v11.6c0,7,4.7,11.6,11.6,11.6s11.6-4.7,11.6-11.6V50.8
			c0-7,4.7-11.6,11.6-11.6h116.4c7,0,11.6,4.7,11.6,11.6v11.6c0,7,4.7,11.6,11.6,11.6c7,0,11.6-4.7,11.6-11.6V50.8
			C349.1,31,334,15.8,314.2,15.8z"/>
	</g>
</g>
<g>
	<path class="st1" d="M121.4,254.8l-20.8-82.8v89.7c0,5-1.1,8.7-3.3,11.2s-5.2,3.7-8.8,3.7c-3.5,0-6.4-1.2-8.7-3.7
		c-2.2-2.5-3.4-6.2-3.4-11.2V159c0-5.7,1.5-9.5,4.4-11.5c3-2,6.9-3,12-3h8.2c4.9,0,8.5,0.4,10.7,1.3c2.2,0.9,3.9,2.5,4.9,4.8
		c1.1,2.3,2.3,6.1,3.6,11.3l18.9,71.2l18.9-71.2c1.4-5.2,2.6-9,3.6-11.3c1.1-2.3,2.7-3.9,4.9-4.8c2.2-0.9,5.8-1.3,10.7-1.3h8.2
		c5,0,9,1,12,3c3,2,4.4,5.8,4.4,11.5v102.8c0,5-1.1,8.7-3.3,11.2s-5.2,3.7-8.9,3.7c-3.5,0-6.4-1.2-8.6-3.7
		c-2.2-2.5-3.4-6.2-3.4-11.2v-89.7l-20.8,82.8c-1.4,5.4-2.5,9.3-3.3,11.8c-0.9,2.5-2.4,4.8-4.7,6.9c-2.3,2.1-5.5,3.1-9.6,3.1
		c-3.1,0-5.7-0.7-7.8-2c-2.1-1.3-3.8-3-5-5.1c-1.2-2.1-2.1-4.4-2.8-6.9C122.8,260.2,122.1,257.6,121.4,254.8z"/>
	<path class="st1" d="M313.9,246.7c0,3-0.9,6.2-2.7,9.7c-1.8,3.4-4.6,6.7-8.2,9.8c-3.7,3.1-8.3,5.6-14,7.5c-5.6,1.9-11.9,2.8-19,2.8
		c-14.9,0-26.6-4.4-35-13.1c-8.4-8.7-12.6-20.4-12.6-35.1c0-9.9,1.9-18.7,5.8-26.3c3.8-7.6,9.4-13.5,16.7-17.7
		c7.3-4.2,16-6.2,26.1-6.2c6.3,0,12,0.9,17.2,2.7c5.2,1.8,9.7,4.2,13.3,7.1c3.6,2.9,6.4,6,8.3,9.3c1.9,3.3,2.9,6.3,2.9,9.2
		c0,2.9-1.1,5.3-3.2,7.4c-2.2,2-4.8,3-7.8,3c-2,0-3.7-0.5-5-1.6c-1.3-1-2.8-2.7-4.5-5c-3-4.5-6-7.9-9.3-10.1
		c-3.2-2.2-7.3-3.4-12.3-3.4c-7.2,0-12.9,2.8-17.3,8.4c-4.4,5.6-6.6,13.2-6.6,22.9c0,4.6,0.6,8.7,1.7,12.5c1.1,3.8,2.7,7.1,4.9,9.8
		c2.1,2.7,4.7,4.7,7.7,6.1c3,1.4,6.3,2.1,9.9,2.1c4.8,0,9-1.1,12.5-3.4c3.5-2.2,6.5-5.7,9.2-10.3c1.5-2.7,3.1-4.8,4.8-6.4
		c1.7-1.5,3.8-2.3,6.3-2.3c3,0,5.4,1.1,7.4,3.4C312.9,241.8,313.9,244.2,313.9,246.7z"/>
	<path class="st1" d="M392.1,274.4h-39.7c-5.7,0-9.8-1.3-12.3-3.9c-2.5-2.6-3.7-6.7-3.7-12.3v-97.7c0-5.7,1.3-9.9,3.8-12.4
		c2.5-2.5,6.6-3.8,12.2-3.8h42.1c6.2,0,11.6,0.4,16.1,1.2c4.5,0.8,8.6,2.2,12.2,4.4c3.1,1.8,5.8,4.2,8.2,7c2.4,2.8,4.2,5.9,5.4,9.3
		c1.2,3.4,1.9,7,1.9,10.8c0,13-6.5,22.5-19.5,28.5c17.1,5.4,25.6,16,25.6,31.7c0,7.3-1.9,13.8-5.6,19.6c-3.7,5.8-8.7,10.1-15.1,12.9
		c-4,1.7-8.5,2.8-13.6,3.5C405,274.1,399,274.4,392.1,274.4z M362.8,164.3v33.6h24.1c6.6,0,11.6-0.6,15.2-1.9
		c3.6-1.2,6.3-3.6,8.2-7.1c1.5-2.5,2.2-5.3,2.2-8.3c0-6.6-2.3-10.9-7-13.1c-4.7-2.2-11.8-3.2-21.4-3.2H362.8z M390.2,216.7h-27.4
		v37.9H391c17.8,0,26.7-6.4,26.7-19.2c0-6.6-2.3-11.3-6.9-14.3C406.2,218.2,399.3,216.7,390.2,216.7z"/>
</g>
</svg>
